<svg width="1440" height="425" viewBox="0 0 1440 425" fill="none" xmlns="http://www.w3.org/2000/svg">
<path d="M445.2 211V279.16H483.6V295H427.2V211H445.2ZM508.388 295H491.348V232.6H508.388V295ZM499.868 225.16C496.828 225.16 494.308 224.16 492.308 222.16C490.308 220.08 489.308 217.56 489.308 214.6C489.308 211.56 490.308 209.04 492.308 207.04C494.308 205.04 496.828 204.04 499.868 204.04C502.828 204.04 505.308 205.04 507.308 207.04C509.388 209.04 510.428 211.56 510.428 214.6C510.428 217.56 509.388 220.08 507.308 222.16C505.308 224.16 502.828 225.16 499.868 225.16ZM556.771 246.76H541.171V275.8C541.171 279 542.771 280.6 545.971 280.6H556.771V295H541.291C535.851 295 531.691 293.56 528.811 290.68C525.931 287.8 524.491 283.64 524.491 278.2V246.76H513.811V232.6H524.491V217H541.171V232.6H556.771V246.76ZM598.134 231.76C605.814 231.76 612.014 234.12 616.734 238.84C621.454 243.56 623.814 250.36 623.814 259.24V295H606.534V261.64C606.534 251.08 602.334 245.8 593.934 245.8C589.934 245.8 586.654 247.28 584.094 250.24C581.614 253.12 580.374 256.92 580.374 261.64V295H563.334V210.4H580.374V239.2C582.614 236.8 585.254 234.96 588.294 233.68C591.334 232.4 594.614 231.76 598.134 231.76ZM674.913 232.6H691.953V295H676.113V287.08C673.793 289.88 670.993 292.04 667.713 293.56C664.513 295.08 660.993 295.84 657.153 295.84C649.473 295.84 643.273 293.48 638.553 288.76C633.833 284.04 631.473 277.24 631.473 268.36V232.6H648.753V265.96C648.753 276.52 652.953 281.8 661.353 281.8C665.353 281.8 668.593 280.36 671.073 277.48C673.633 274.52 674.913 270.68 674.913 265.96V232.6ZM760.677 280.6V295H752.157C749.117 295 746.757 294.36 745.077 293.08C743.477 291.8 742.397 289.72 741.837 286.84C737.437 292.84 730.797 295.84 721.917 295.84C714.957 295.84 709.317 294.08 704.997 290.56C700.757 286.96 698.637 282.24 698.637 276.4C698.637 270.4 700.917 265.76 705.477 262.48C710.117 259.2 716.597 257.56 724.917 257.56H734.037C735.877 257.56 737.157 257.4 737.877 257.08C738.597 256.68 738.957 256.08 738.957 255.28V253.96C738.957 251.48 737.957 249.48 735.957 247.96C733.957 246.44 731.357 245.68 728.157 245.68C725.117 245.68 722.597 246.32 720.597 247.6C718.597 248.8 717.397 250.52 716.997 252.76H700.557C701.277 246.36 704.197 241.2 709.317 237.28C714.437 233.36 720.837 231.4 728.517 231.4C733.637 231.4 738.157 232.36 742.077 234.28C746.077 236.12 749.157 238.72 751.317 242.08C753.557 245.44 754.677 249.28 754.677 253.6V277C754.677 279.4 755.877 280.6 758.277 280.6H760.677ZM724.917 282.88C729.237 282.88 732.717 281.68 735.357 279.28C737.997 276.8 739.317 273.56 739.317 269.56V266.92C737.317 268.12 733.837 268.72 728.877 268.72H724.317C721.357 268.72 719.037 269.36 717.357 270.64C715.677 271.84 714.837 273.52 714.837 275.68C714.837 277.92 715.717 279.68 717.477 280.96C719.317 282.24 721.797 282.88 724.917 282.88ZM801.563 231.76C809.243 231.76 815.443 234.12 820.163 238.84C824.883 243.56 827.243 250.36 827.243 259.24V295H809.963V261.64C809.963 251.08 805.763 245.8 797.363 245.8C793.363 245.8 790.083 247.28 787.523 250.24C785.043 253.12 783.803 256.92 783.803 261.64V295H766.763V232.6H782.603V240.52C784.923 237.72 787.683 235.56 790.883 234.04C794.163 232.52 797.723 231.76 801.563 231.76ZM853.487 295H836.447V232.6H853.487V295ZM844.967 225.16C841.927 225.16 839.407 224.16 837.407 222.16C835.407 220.08 834.407 217.56 834.407 214.6C834.407 211.56 835.407 209.04 837.407 207.04C839.407 205.04 841.927 204.04 844.967 204.04C847.927 204.04 850.407 205.04 852.407 207.04C854.487 209.04 855.527 211.56 855.527 214.6C855.527 217.56 854.487 220.08 852.407 222.16C850.407 224.16 847.927 225.16 844.967 225.16ZM922.269 280.6V295H913.749C910.709 295 908.349 294.36 906.669 293.08C905.069 291.8 903.989 289.72 903.429 286.84C899.029 292.84 892.389 295.84 883.509 295.84C876.549 295.84 870.909 294.08 866.589 290.56C862.349 286.96 860.229 282.24 860.229 276.4C860.229 270.4 862.509 265.76 867.069 262.48C871.709 259.2 878.189 257.56 886.509 257.56H895.629C897.469 257.56 898.749 257.4 899.469 257.08C900.189 256.68 900.549 256.08 900.549 255.28V253.96C900.549 251.48 899.549 249.48 897.549 247.96C895.549 246.44 892.949 245.68 889.749 245.68C886.709 245.68 884.189 246.32 882.189 247.6C880.189 248.8 878.989 250.52 878.589 252.76H862.149C862.869 246.36 865.789 241.2 870.909 237.28C876.029 233.36 882.429 231.4 890.109 231.4C895.229 231.4 899.749 232.36 903.669 234.28C907.669 236.12 910.749 238.72 912.909 242.08C915.149 245.44 916.269 249.28 916.269 253.6V277C916.269 279.4 917.469 280.6 919.869 280.6H922.269ZM886.509 282.88C890.829 282.88 894.309 281.68 896.949 279.28C899.589 276.8 900.909 273.56 900.909 269.56V266.92C898.909 268.12 895.429 268.72 890.469 268.72H885.909C882.949 268.72 880.629 269.36 878.949 270.64C877.269 271.84 876.429 273.52 876.429 275.68C876.429 277.92 877.309 279.68 879.069 280.96C880.909 282.24 883.389 282.88 886.509 282.88Z" fill="#9D2B2E"/>
<path d="M1063.88 296.8C1057.16 296.8 1051.2 295.56 1046 293.08C1040.8 290.6 1036.68 287.12 1033.64 282.64C1030.6 278.16 1028.92 272.92 1028.6 266.92H1046.48C1046.88 271.64 1048.56 275.28 1051.52 277.84C1054.48 280.32 1058.68 281.56 1064.12 281.56C1068.92 281.56 1072.68 280.72 1075.4 279.04C1078.12 277.28 1079.48 274.76 1079.48 271.48C1079.48 269.16 1078.76 267.36 1077.32 266.08C1075.88 264.72 1073.84 263.64 1071.2 262.84C1068.56 261.96 1064.32 260.88 1058.48 259.6L1055 258.88C1048.52 257.36 1042.76 254.84 1037.72 251.32C1032.68 247.8 1030.16 242.12 1030.16 234.28C1030.16 229.08 1031.56 224.6 1034.36 220.84C1037.16 217.08 1041 214.2 1045.88 212.2C1050.84 210.2 1056.4 209.2 1062.56 209.2C1069.36 209.2 1075.28 210.44 1080.32 212.92C1085.36 215.32 1089.28 218.72 1092.08 223.12C1094.88 227.52 1096.44 232.6 1096.76 238.36H1077.92C1077.6 234.28 1076.08 230.96 1073.36 228.4C1070.64 225.84 1066.76 224.56 1061.72 224.56C1057.4 224.56 1054.04 225.4 1051.64 227.08C1049.32 228.76 1048.16 231.2 1048.16 234.4C1048.16 236.64 1048.84 238.4 1050.2 239.68C1051.56 240.88 1053.56 241.88 1056.2 242.68C1058.84 243.48 1063.08 244.48 1068.92 245.68L1071.8 246.28C1078.6 247.8 1084.6 250.28 1089.8 253.72C1095.08 257.08 1097.72 262.56 1097.72 270.16C1097.72 275.52 1096.28 280.24 1093.4 284.32C1090.6 288.32 1086.64 291.4 1081.52 293.56C1076.4 295.72 1070.52 296.8 1063.88 296.8ZM1123.35 295H1106.31V210.4H1123.35V295ZM1164.17 296.2C1157.93 296.2 1152.29 294.8 1147.25 292C1142.21 289.2 1138.25 285.36 1135.37 280.48C1132.57 275.52 1131.17 269.96 1131.17 263.8C1131.17 257.64 1132.57 252.12 1135.37 247.24C1138.25 242.28 1142.21 238.4 1147.25 235.6C1152.29 232.8 1157.93 231.4 1164.17 231.4C1170.41 231.4 1176.05 232.8 1181.09 235.6C1186.13 238.4 1190.05 242.28 1192.85 247.24C1195.73 252.12 1197.17 257.64 1197.17 263.8C1197.17 269.96 1195.73 275.52 1192.85 280.48C1190.05 285.36 1186.13 289.2 1181.09 292C1176.05 294.8 1170.41 296.2 1164.17 296.2ZM1164.17 281.8C1168.81 281.8 1172.57 280.16 1175.45 276.88C1178.33 273.52 1179.77 269.16 1179.77 263.8C1179.77 258.44 1178.33 254.12 1175.45 250.84C1172.57 247.48 1168.81 245.8 1164.17 245.8C1159.53 245.8 1155.77 247.48 1152.89 250.84C1150.01 254.12 1148.57 258.44 1148.57 263.8C1148.57 269.16 1150.01 273.52 1152.89 276.88C1155.77 280.16 1159.53 281.8 1164.17 281.8ZM1230.54 280.6L1246.38 232.6H1264.38L1240.74 295H1219.62L1195.98 232.6H1214.34L1230.54 280.6ZM1324.12 280.6V295H1315.6C1312.56 295 1310.2 294.36 1308.52 293.08C1306.92 291.8 1305.84 289.72 1305.28 286.84C1300.88 292.84 1294.24 295.84 1285.36 295.84C1278.4 295.84 1272.76 294.08 1268.44 290.56C1264.2 286.96 1262.08 282.24 1262.08 276.4C1262.08 270.4 1264.36 265.76 1268.92 262.48C1273.56 259.2 1280.04 257.56 1288.36 257.56H1297.48C1299.32 257.56 1300.6 257.4 1301.32 257.08C1302.04 256.68 1302.4 256.08 1302.4 255.28V253.96C1302.4 251.48 1301.4 249.48 1299.4 247.96C1297.4 246.44 1294.8 245.68 1291.6 245.68C1288.56 245.68 1286.04 246.32 1284.04 247.6C1282.04 248.8 1280.84 250.52 1280.44 252.76H1264C1264.72 246.36 1267.64 241.2 1272.76 237.28C1277.88 233.36 1284.28 231.4 1291.96 231.4C1297.08 231.4 1301.6 232.36 1305.52 234.28C1309.52 236.12 1312.6 238.72 1314.76 242.08C1317 245.44 1318.12 249.28 1318.12 253.6V277C1318.12 279.4 1319.32 280.6 1321.72 280.6H1324.12ZM1288.36 282.88C1292.68 282.88 1296.16 281.68 1298.8 279.28C1301.44 276.8 1302.76 273.56 1302.76 269.56V266.92C1300.76 268.12 1297.28 268.72 1292.32 268.72H1287.76C1284.8 268.72 1282.48 269.36 1280.8 270.64C1279.12 271.84 1278.28 273.52 1278.28 275.68C1278.28 277.92 1279.16 279.68 1280.92 280.96C1282.76 282.24 1285.24 282.88 1288.36 282.88ZM1391.76 295H1371.84L1354.44 269.08L1347.24 276.4V295H1330.2V210.4H1347.24V257.68L1370.28 232.6H1390.56L1366.2 258.28L1391.76 295ZM1413.65 295H1396.61V232.6H1413.65V295ZM1405.13 225.16C1402.09 225.16 1399.57 224.16 1397.57 222.16C1395.57 220.08 1394.57 217.56 1394.57 214.6C1394.57 211.56 1395.57 209.04 1397.57 207.04C1399.57 205.04 1402.09 204.04 1405.13 204.04C1408.09 204.04 1410.57 205.04 1412.57 207.04C1414.65 209.04 1415.69 211.56 1415.69 214.6C1415.69 217.56 1414.65 220.08 1412.57 222.16C1410.57 224.16 1408.09 225.16 1405.13 225.16ZM1482.43 280.6V295H1473.91C1470.87 295 1468.51 294.36 1466.83 293.08C1465.23 291.8 1464.15 289.72 1463.59 286.84C1459.19 292.84 1452.55 295.84 1443.67 295.84C1436.71 295.84 1431.07 294.08 1426.75 290.56C1422.51 286.96 1420.39 282.24 1420.39 276.4C1420.39 270.4 1422.67 265.76 1427.23 262.48C1431.87 259.2 1438.35 257.56 1446.67 257.56H1455.79C1457.63 257.56 1458.91 257.4 1459.63 257.08C1460.35 256.68 1460.71 256.08 1460.71 255.28V253.96C1460.71 251.48 1459.71 249.48 1457.71 247.96C1455.71 246.44 1453.11 245.68 1449.91 245.68C1446.87 245.68 1444.35 246.32 1442.35 247.6C1440.35 248.8 1439.15 250.52 1438.75 252.76H1422.31C1423.03 246.36 1425.95 241.2 1431.07 237.28C1436.19 233.36 1442.59 231.4 1450.27 231.4C1455.39 231.4 1459.91 232.36 1463.83 234.28C1467.83 236.12 1470.91 238.72 1473.07 242.08C1475.31 245.44 1476.43 249.28 1476.43 253.6V277C1476.43 279.4 1477.63 280.6 1480.03 280.6H1482.43ZM1446.67 282.88C1450.99 282.88 1454.47 281.68 1457.11 279.28C1459.75 276.8 1461.07 273.56 1461.07 269.56V266.92C1459.07 268.12 1455.59 268.72 1450.63 268.72H1446.07C1443.11 268.72 1440.79 269.36 1439.11 270.64C1437.43 271.84 1436.59 273.52 1436.59 275.68C1436.59 277.92 1437.47 279.68 1439.23 280.96C1441.07 282.24 1443.55 282.88 1446.67 282.88Z" fill="#D9B89A"/>
<path d="M10.2 211V279.16H48.6V295H-7.8V211H10.2ZM114.908 280.6V295H106.388C103.348 295 100.988 294.36 99.3084 293.08C97.7084 291.8 96.6284 289.72 96.0684 286.84C91.6684 292.84 85.0284 295.84 76.1484 295.84C69.1884 295.84 63.5484 294.08 59.2284 290.56C54.9884 286.96 52.8684 282.24 52.8684 276.4C52.8684 270.4 55.1484 265.76 59.7084 262.48C64.3484 259.2 70.8284 257.56 79.1484 257.56H88.2684C90.1084 257.56 91.3884 257.4 92.1084 257.08C92.8284 256.68 93.1884 256.08 93.1884 255.28V253.96C93.1884 251.48 92.1884 249.48 90.1884 247.96C88.1884 246.44 85.5884 245.68 82.3884 245.68C79.3484 245.68 76.8284 246.32 74.8284 247.6C72.8284 248.8 71.6284 250.52 71.2284 252.76H54.7884C55.5084 246.36 58.4284 241.2 63.5484 237.28C68.6684 233.36 75.0684 231.4 82.7484 231.4C87.8684 231.4 92.3884 232.36 96.3084 234.28C100.308 236.12 103.388 238.72 105.548 242.08C107.788 245.44 108.908 249.28 108.908 253.6V277C108.908 279.4 110.108 280.6 112.508 280.6H114.908ZM79.1484 282.88C83.4684 282.88 86.9484 281.68 89.5884 279.28C92.2284 276.8 93.5484 273.56 93.5484 269.56V266.92C91.5484 268.12 88.0684 268.72 83.1084 268.72H78.5484C75.5884 268.72 73.2684 269.36 71.5884 270.64C69.9084 271.84 69.0684 273.52 69.0684 275.68C69.0684 277.92 69.9484 279.68 71.7084 280.96C73.5484 282.24 76.0284 282.88 79.1484 282.88ZM156.107 246.76H140.507V275.8C140.507 279 142.107 280.6 145.307 280.6H156.107V295H140.627C135.187 295 131.027 293.56 128.147 290.68C125.267 287.8 123.827 283.64 123.827 278.2V246.76H113.147V232.6H123.827V217H140.507V232.6H156.107V246.76ZM193.002 280.6L208.842 232.6H226.842L203.202 295H182.082L158.442 232.6H176.802L193.002 280.6ZM248.692 295H231.652V232.6H248.692V295ZM240.172 225.16C237.132 225.16 234.612 224.16 232.612 222.16C230.612 220.08 229.612 217.56 229.612 214.6C229.612 211.56 230.612 209.04 232.612 207.04C234.612 205.04 237.132 204.04 240.172 204.04C243.132 204.04 245.612 205.04 247.612 207.04C249.692 209.04 250.732 211.56 250.732 214.6C250.732 217.56 249.692 220.08 247.612 222.16C245.612 224.16 243.132 225.16 240.172 225.16ZM317.474 280.6V295H308.954C305.914 295 303.554 294.36 301.874 293.08C300.274 291.8 299.194 289.72 298.634 286.84C294.234 292.84 287.594 295.84 278.714 295.84C271.754 295.84 266.114 294.08 261.794 290.56C257.554 286.96 255.434 282.24 255.434 276.4C255.434 270.4 257.714 265.76 262.274 262.48C266.914 259.2 273.394 257.56 281.714 257.56H290.834C292.674 257.56 293.954 257.4 294.674 257.08C295.394 256.68 295.754 256.08 295.754 255.28V253.96C295.754 251.48 294.754 249.48 292.754 247.96C290.754 246.44 288.154 245.68 284.954 245.68C281.914 245.68 279.394 246.32 277.394 247.6C275.394 248.8 274.194 250.52 273.794 252.76H257.354C258.074 246.36 260.994 241.2 266.114 237.28C271.234 233.36 277.634 231.4 285.314 231.4C290.434 231.4 294.954 232.36 298.874 234.28C302.874 236.12 305.954 238.72 308.114 242.08C310.354 245.44 311.474 249.28 311.474 253.6V277C311.474 279.4 312.674 280.6 315.074 280.6H317.474ZM281.714 282.88C286.034 282.88 289.514 281.68 292.154 279.28C294.794 276.8 296.114 273.56 296.114 269.56V266.92C294.114 268.12 290.634 268.72 285.674 268.72H281.114C278.154 268.72 275.834 269.36 274.154 270.64C272.474 271.84 271.634 273.52 271.634 275.68C271.634 277.92 272.514 279.68 274.274 280.96C276.114 282.24 278.594 282.88 281.714 282.88Z" fill="#FF7C2A"/>
<path d="M268.96 130.56V149.4H308.8V165H251.2V81H306.4V96.6H268.96V114.96H302.8V130.56H268.96ZM340.951 166.2C331.751 166.2 324.591 164.16 319.471 160.08C314.431 155.92 311.671 150.6 311.191 144.12H328.711C329.111 146.76 330.351 148.84 332.431 150.36C334.591 151.88 337.511 152.64 341.191 152.64C348.631 152.64 352.351 150.52 352.351 146.28C352.351 144.84 351.791 143.72 350.671 142.92C349.551 142.04 347.831 141.36 345.511 140.88C343.191 140.4 339.671 139.84 334.951 139.2C329.591 138.48 324.511 136.8 319.711 134.16C314.991 131.44 312.631 126.96 312.631 120.72C312.631 114.8 315.031 110.12 319.831 106.68C324.711 103.16 331.551 101.4 340.351 101.4C346.431 101.4 351.591 102.4 355.831 104.4C360.071 106.32 363.271 108.92 365.431 112.2C367.671 115.48 368.911 119.08 369.151 123H350.671C350.271 120.44 349.191 118.48 347.431 117.12C345.671 115.68 343.231 114.96 340.111 114.96C336.191 114.96 333.471 115.48 331.951 116.52C330.431 117.48 329.671 118.88 329.671 120.72C329.671 122.64 330.871 124.04 333.271 124.92C335.671 125.72 339.711 126.52 345.391 127.32C349.791 127.88 353.671 128.68 357.031 129.72C360.391 130.68 363.351 132.4 365.911 134.88C368.551 137.36 369.871 140.8 369.871 145.2C369.871 151.6 367.311 156.72 362.191 160.56C357.151 164.32 350.071 166.2 340.951 166.2ZM413.466 116.76H397.866V145.8C397.866 149 399.466 150.6 402.666 150.6H413.466V165H397.986C392.546 165 388.386 163.56 385.506 160.68C382.626 157.8 381.186 153.64 381.186 148.2V116.76H370.506V102.6H381.186V87H397.866V102.6H413.466V116.76ZM448.286 166.2C442.046 166.2 436.406 164.8 431.366 162C426.326 159.2 422.366 155.36 419.486 150.48C416.686 145.52 415.286 139.96 415.286 133.8C415.286 127.64 416.686 122.12 419.486 117.24C422.366 112.28 426.326 108.4 431.366 105.6C436.406 102.8 442.046 101.4 448.286 101.4C454.526 101.4 460.166 102.8 465.206 105.6C470.246 108.4 474.166 112.28 476.966 117.24C479.846 122.12 481.286 127.64 481.286 133.8C481.286 139.96 479.846 145.52 476.966 150.48C474.166 155.36 470.246 159.2 465.206 162C460.166 164.8 454.526 166.2 448.286 166.2ZM448.286 151.8C452.926 151.8 456.686 150.16 459.566 146.88C462.446 143.52 463.886 139.16 463.886 133.8C463.886 128.44 462.446 124.12 459.566 120.84C456.686 117.48 452.926 115.8 448.286 115.8C443.646 115.8 439.886 117.48 437.006 120.84C434.126 124.12 432.686 128.44 432.686 133.8C432.686 139.16 434.126 143.52 437.006 146.88C439.886 150.16 443.646 151.8 448.286 151.8ZM523.928 101.76C531.608 101.76 537.808 104.12 542.528 108.84C547.248 113.56 549.608 120.36 549.608 129.24V165H532.328V131.64C532.328 121.08 528.128 115.8 519.728 115.8C515.728 115.8 512.448 117.28 509.888 120.24C507.408 123.12 506.168 126.92 506.168 131.64V165H489.128V102.6H504.968V110.52C507.288 107.72 510.048 105.56 513.248 104.04C516.528 102.52 520.088 101.76 523.928 101.76ZM575.853 165H558.813V102.6H575.853V165ZM567.333 95.16C564.293 95.16 561.773 94.16 559.773 92.16C557.773 90.08 556.772 87.56 556.772 84.6C556.772 81.56 557.773 79.04 559.773 77.04C561.773 75.04 564.293 74.04 567.333 74.04C570.293 74.04 572.773 75.04 574.773 77.04C576.853 79.04 577.893 81.56 577.893 84.6C577.893 87.56 576.853 90.08 574.773 92.16C572.773 94.16 570.293 95.16 567.333 95.16ZM644.635 150.6V165H636.115C633.075 165 630.715 164.36 629.035 163.08C627.435 161.8 626.355 159.72 625.795 156.84C621.395 162.84 614.755 165.84 605.875 165.84C598.915 165.84 593.275 164.08 588.955 160.56C584.715 156.96 582.595 152.24 582.595 146.4C582.595 140.4 584.875 135.76 589.435 132.48C594.075 129.2 600.555 127.56 608.875 127.56H617.995C619.835 127.56 621.115 127.4 621.835 127.08C622.555 126.68 622.915 126.08 622.915 125.28V123.96C622.915 121.48 621.915 119.48 619.915 117.96C617.915 116.44 615.315 115.68 612.115 115.68C609.075 115.68 606.555 116.32 604.555 117.6C602.555 118.8 601.355 120.52 600.955 122.76H584.515C585.235 116.36 588.155 111.2 593.275 107.28C598.395 103.36 604.795 101.4 612.475 101.4C617.595 101.4 622.115 102.36 626.035 104.28C630.035 106.12 633.115 108.72 635.275 112.08C637.515 115.44 638.635 119.28 638.635 123.6V147C638.635 149.4 639.835 150.6 642.235 150.6H644.635ZM608.875 152.88C613.195 152.88 616.675 151.68 619.315 149.28C621.955 146.8 623.275 143.56 623.275 139.56V136.92C621.275 138.12 617.795 138.72 612.835 138.72H608.275C605.315 138.72 602.995 139.36 601.315 140.64C599.635 141.84 598.795 143.52 598.795 145.68C598.795 147.92 599.675 149.68 601.435 150.96C603.275 152.24 605.755 152.88 608.875 152.88Z" fill="#D9B89A"/>
<path d="M809.52 121.68C813.2 123.6 816 126.16 817.92 129.36C819.84 132.56 820.8 136.24 820.8 140.4C820.8 147.76 818.36 153.72 813.48 158.28C808.6 162.76 801.68 165 792.72 165H754.2V81H792.24C801.04 81 807.8 83.2 812.52 87.6C817.24 92 819.6 97.8 819.6 105C819.6 108.44 818.72 111.6 816.96 114.48C815.2 117.36 812.72 119.76 809.52 121.68ZM771.84 96V115.56H790.92C794.44 115.56 797.16 114.64 799.08 112.8C801 110.96 801.96 108.6 801.96 105.72C801.96 102.84 801 100.52 799.08 98.76C797.16 96.92 794.44 96 790.92 96H771.84ZM791.52 150C795.2 150 798.04 149.08 800.04 147.24C802.12 145.32 803.16 142.88 803.16 139.92C803.16 136.96 802.12 134.56 800.04 132.72C798.04 130.8 795.2 129.84 791.52 129.84H771.84V150H791.52ZM872.196 102.6H889.236V165H873.396V157.08C871.076 159.88 868.276 162.04 864.996 163.56C861.796 165.08 858.276 165.84 854.436 165.84C846.756 165.84 840.556 163.48 835.836 158.76C831.116 154.04 828.756 147.24 828.756 138.36V102.6H846.036V135.96C846.036 146.52 850.236 151.8 858.636 151.8C862.636 151.8 865.876 150.36 868.356 147.48C870.916 144.52 872.196 140.68 872.196 135.96V102.6ZM916.44 165H899.4V80.4H916.44V165ZM972.023 102.6H987.863V160.2C987.863 165.72 986.583 170.6 984.023 174.84C981.463 179.16 977.783 182.48 972.983 184.8C968.263 187.2 962.623 188.4 956.063 188.4C947.503 188.4 940.463 186.48 934.943 182.64C929.503 178.8 926.343 173.72 925.463 167.4H943.103C944.863 171.88 949.263 174.12 956.303 174.12C960.783 174.12 964.383 172.96 967.103 170.64C969.823 168.32 971.183 165.24 971.183 161.4V156.24C968.863 158.64 966.183 160.48 963.143 161.76C960.183 163.04 956.983 163.68 953.543 163.68C948.023 163.68 943.023 162.36 938.543 159.72C934.063 157 930.543 153.28 927.983 148.56C925.503 143.84 924.263 138.56 924.263 132.72C924.263 126.88 925.503 121.6 927.983 116.88C930.543 112.16 934.063 108.48 938.543 105.84C943.023 103.12 948.023 101.76 953.543 101.76C957.223 101.76 960.623 102.48 963.743 103.92C966.943 105.36 969.703 107.4 972.023 110.04V102.6ZM957.263 150.36C961.903 150.36 965.663 148.76 968.543 145.56C971.423 142.36 972.863 138.2 972.863 133.08C972.863 127.96 971.423 123.8 968.543 120.6C965.663 117.32 961.903 115.68 957.263 115.68C952.623 115.68 948.863 117.32 945.983 120.6C943.103 123.8 941.663 127.96 941.663 133.08C941.663 138.2 943.103 142.36 945.983 145.56C948.863 148.76 952.623 150.36 957.263 150.36ZM1056.66 150.6V165H1048.14C1045.1 165 1042.74 164.36 1041.06 163.08C1039.46 161.8 1038.38 159.72 1037.82 156.84C1033.42 162.84 1026.78 165.84 1017.9 165.84C1010.94 165.84 1005.3 164.08 1000.98 160.56C996.745 156.96 994.625 152.24 994.625 146.4C994.625 140.4 996.905 135.76 1001.46 132.48C1006.1 129.2 1012.58 127.56 1020.9 127.56H1030.02C1031.86 127.56 1033.14 127.4 1033.86 127.08C1034.58 126.68 1034.94 126.08 1034.94 125.28V123.96C1034.94 121.48 1033.94 119.48 1031.94 117.96C1029.94 116.44 1027.34 115.68 1024.14 115.68C1021.1 115.68 1018.58 116.32 1016.58 117.6C1014.58 118.8 1013.38 120.52 1012.98 122.76H996.545C997.265 116.36 1000.18 111.2 1005.3 107.28C1010.42 103.36 1016.82 101.4 1024.5 101.4C1029.62 101.4 1034.14 102.36 1038.06 104.28C1042.06 106.12 1045.14 108.72 1047.3 112.08C1049.54 115.44 1050.66 119.28 1050.66 123.6V147C1050.66 149.4 1051.86 150.6 1054.26 150.6H1056.66ZM1020.9 152.88C1025.22 152.88 1028.7 151.68 1031.34 149.28C1033.98 146.8 1035.3 143.56 1035.3 139.56V136.92C1033.3 138.12 1029.82 138.72 1024.86 138.72H1020.3C1017.34 138.72 1015.02 139.36 1013.34 140.64C1011.66 141.84 1010.82 143.52 1010.82 145.68C1010.82 147.92 1011.7 149.68 1013.46 150.96C1015.3 152.24 1017.78 152.88 1020.9 152.88ZM1103.67 102.6V117.84H1090.71C1087.27 117.84 1084.59 118.96 1082.67 121.2C1080.75 123.44 1079.79 126.52 1079.79 130.44V165H1062.75V102.6H1078.59V111C1080.59 108.28 1082.99 106.2 1085.79 104.76C1088.67 103.32 1091.79 102.6 1095.15 102.6H1103.67ZM1127.33 165H1110.29V102.6H1127.33V165ZM1118.81 95.16C1115.77 95.16 1113.25 94.16 1111.25 92.16C1109.25 90.08 1108.25 87.56 1108.25 84.6C1108.25 81.56 1109.25 79.04 1111.25 77.04C1113.25 75.04 1115.77 74.04 1118.81 74.04C1121.77 74.04 1124.25 75.04 1126.25 77.04C1128.33 79.04 1129.37 81.56 1129.37 84.6C1129.37 87.56 1128.33 90.08 1126.25 92.16C1124.25 94.16 1121.77 95.16 1118.81 95.16ZM1196.11 150.6V165H1187.59C1184.55 165 1182.19 164.36 1180.51 163.08C1178.91 161.8 1177.83 159.72 1177.27 156.84C1172.87 162.84 1166.23 165.84 1157.35 165.84C1150.39 165.84 1144.75 164.08 1140.43 160.56C1136.19 156.96 1134.07 152.24 1134.07 146.4C1134.07 140.4 1136.35 135.76 1140.91 132.48C1145.55 129.2 1152.03 127.56 1160.35 127.56H1169.47C1171.31 127.56 1172.59 127.4 1173.31 127.08C1174.03 126.68 1174.39 126.08 1174.39 125.28V123.96C1174.39 121.48 1173.39 119.48 1171.39 117.96C1169.39 116.44 1166.79 115.68 1163.59 115.68C1160.55 115.68 1158.03 116.32 1156.03 117.6C1154.03 118.8 1152.83 120.52 1152.43 122.76H1135.99C1136.71 116.36 1139.63 111.2 1144.75 107.28C1149.87 103.36 1156.27 101.4 1163.95 101.4C1169.07 101.4 1173.59 102.36 1177.51 104.28C1181.51 106.12 1184.59 108.72 1186.75 112.08C1188.99 115.44 1190.11 119.28 1190.11 123.6V147C1190.11 149.4 1191.31 150.6 1193.71 150.6H1196.11ZM1160.35 152.88C1164.67 152.88 1168.15 151.68 1170.79 149.28C1173.43 146.8 1174.75 143.56 1174.75 139.56V136.92C1172.75 138.12 1169.27 138.72 1164.31 138.72H1159.75C1156.79 138.72 1154.47 139.36 1152.79 140.64C1151.11 141.84 1150.27 143.52 1150.27 145.68C1150.27 147.92 1151.15 149.68 1152.91 150.96C1154.75 152.24 1157.23 152.88 1160.35 152.88Z" fill="#115E67"/>
<path d="M-190.32 81C-180.64 81 -173.2 83.44 -168 88.32C-162.8 93.12 -160.2 99.48 -160.2 107.4C-160.2 112.52 -161.36 117.08 -163.68 121.08C-166 125.08 -169.44 128.2 -174 130.44C-178.48 132.68 -183.92 133.8 -190.32 133.8H-208.8V165H-226.8V81H-190.32ZM-190.68 118.92C-186.84 118.92 -183.88 117.92 -181.8 115.92C-179.64 113.84 -178.56 111.12 -178.56 107.76C-178.56 104.4 -179.64 101.72 -181.8 99.72C-183.88 97.64 -186.84 96.6 -190.68 96.6H-208.8V118.92H-190.68ZM-125.372 166.2C-131.612 166.2 -137.252 164.8 -142.292 162C-147.332 159.2 -151.292 155.36 -154.172 150.48C-156.972 145.52 -158.372 139.96 -158.372 133.8C-158.372 127.64 -156.972 122.12 -154.172 117.24C-151.292 112.28 -147.332 108.4 -142.292 105.6C-137.252 102.8 -131.612 101.4 -125.372 101.4C-119.132 101.4 -113.492 102.8 -108.452 105.6C-103.412 108.4 -99.4919 112.28 -96.6919 117.24C-93.8119 122.12 -92.3719 127.64 -92.3719 133.8C-92.3719 139.96 -93.8119 145.52 -96.6919 150.48C-99.4919 155.36 -103.412 159.2 -108.452 162C-113.492 164.8 -119.132 166.2 -125.372 166.2ZM-125.372 151.8C-120.732 151.8 -116.972 150.16 -114.092 146.88C-111.212 143.52 -109.772 139.16 -109.772 133.8C-109.772 128.44 -111.212 124.12 -114.092 120.84C-116.972 117.48 -120.732 115.8 -125.372 115.8C-130.012 115.8 -133.772 117.48 -136.652 120.84C-139.532 124.12 -140.972 128.44 -140.972 133.8C-140.972 139.16 -139.532 143.52 -136.652 146.88C-133.772 150.16 -130.012 151.8 -125.372 151.8ZM-67.4897 165H-84.5297V80.4H-67.4897V165ZM1.29282 150.6V165H-7.22718C-10.2672 165 -12.6272 164.36 -14.3072 163.08C-15.9072 161.8 -16.9872 159.72 -17.5472 156.84C-21.9472 162.84 -28.5872 165.84 -37.4672 165.84C-44.4272 165.84 -50.0672 164.08 -54.3872 160.56C-58.6272 156.96 -60.7472 152.24 -60.7472 146.4C-60.7472 140.4 -58.4672 135.76 -53.9072 132.48C-49.2672 129.2 -42.7872 127.56 -34.4672 127.56H-25.3472C-23.5072 127.56 -22.2272 127.4 -21.5072 127.08C-20.7872 126.68 -20.4272 126.08 -20.4272 125.28V123.96C-20.4272 121.48 -21.4272 119.48 -23.4272 117.96C-25.4272 116.44 -28.0272 115.68 -31.2272 115.68C-34.2672 115.68 -36.7872 116.32 -38.7872 117.6C-40.7872 118.8 -41.9872 120.52 -42.3872 122.76H-58.8272C-58.1072 116.36 -55.1872 111.2 -50.0672 107.28C-44.9472 103.36 -38.5472 101.4 -30.8672 101.4C-25.7472 101.4 -21.2272 102.36 -17.3072 104.28C-13.3072 106.12 -10.2272 108.72 -8.06718 112.08C-5.82718 115.44 -4.70718 119.28 -4.70718 123.6V147C-4.70718 149.4 -3.50718 150.6 -1.10718 150.6H1.29282ZM-34.4672 152.88C-30.1472 152.88 -26.6672 151.68 -24.0272 149.28C-21.3872 146.8 -20.0672 143.56 -20.0672 139.56V136.92C-22.0672 138.12 -25.5472 138.72 -30.5072 138.72H-35.0672C-38.0272 138.72 -40.3472 139.36 -42.0272 140.64C-43.7072 141.84 -44.5472 143.52 -44.5472 145.68C-44.5472 147.92 -43.6672 149.68 -41.9072 150.96C-40.0672 152.24 -37.5872 152.88 -34.4672 152.88ZM42.1781 101.76C49.8581 101.76 56.0581 104.12 60.7781 108.84C65.4981 113.56 67.8581 120.36 67.8581 129.24V165H50.5781V131.64C50.5781 121.08 46.3781 115.8 37.9781 115.8C33.9781 115.8 30.6981 117.28 28.1381 120.24C25.6581 123.12 24.4181 126.92 24.4181 131.64V165H7.37813V102.6H23.2181V110.52C25.5381 107.72 28.2981 105.56 31.4981 104.04C34.7781 102.52 38.3381 101.76 42.1781 101.76ZM120.637 80.4H137.677V165H121.837V157.2C119.517 159.92 116.757 162.04 113.557 163.56C110.437 165.08 107.037 165.84 103.357 165.84C97.8366 165.84 92.8366 164.44 88.3566 161.64C83.9566 158.84 80.4766 155 77.9166 150.12C75.3566 145.24 74.0766 139.8 74.0766 133.8C74.0766 127.8 75.3566 122.36 77.9166 117.48C80.4766 112.6 83.9566 108.76 88.3566 105.96C92.8366 103.16 97.8366 101.76 103.357 101.76C106.717 101.76 109.877 102.4 112.837 103.68C115.797 104.88 118.397 106.68 120.637 109.08V80.4ZM107.077 151.8C111.717 151.8 115.477 150.16 118.357 146.88C121.237 143.52 122.677 139.16 122.677 133.8C122.677 128.44 121.237 124.12 118.357 120.84C115.477 117.48 111.717 115.8 107.077 115.8C102.437 115.8 98.6766 117.48 95.7966 120.84C92.9166 124.12 91.4766 128.44 91.4766 133.8C91.4766 139.16 92.9166 143.52 95.7966 146.88C98.6766 150.16 102.437 151.8 107.077 151.8Z" fill="#115E67"/>
<path d="M1384.04 118.32V165H1369.88V154.68C1366.92 158.52 1363.16 161.44 1358.6 163.44C1354.04 165.44 1348.88 166.44 1343.12 166.44C1335.12 166.44 1328 164.6 1321.76 160.92C1315.52 157.24 1310.64 152.12 1307.12 145.56C1303.6 138.92 1301.84 131.4 1301.84 123C1301.84 114.44 1303.6 106.84 1307.12 100.2C1310.72 93.56 1315.68 88.4 1322 84.72C1328.4 81.04 1335.68 79.2 1343.84 79.2C1350.64 79.2 1356.76 80.44 1362.2 82.92C1367.64 85.32 1372.08 88.76 1375.52 93.24C1379.04 97.64 1381.32 102.8 1382.36 108.72H1363.52C1362.4 104.48 1360.12 101.2 1356.68 98.88C1353.24 96.48 1348.92 95.28 1343.72 95.28C1336.36 95.28 1330.6 97.72 1326.44 102.6C1322.36 107.48 1320.32 114.28 1320.32 123C1320.32 131.72 1322.56 138.6 1327.04 143.64C1331.52 148.68 1337.6 151.2 1345.28 151.2C1351.44 151.2 1356.52 149.52 1360.52 146.16C1364.6 142.72 1366.96 138.16 1367.6 132.48H1345.28V118.32H1384.04ZM1434.53 102.6V117.84H1421.57C1418.13 117.84 1415.45 118.96 1413.53 121.2C1411.61 123.44 1410.65 126.52 1410.65 130.44V165H1393.61V102.6H1409.45V111C1411.45 108.28 1413.85 106.2 1416.65 104.76C1419.53 103.32 1422.65 102.6 1426.01 102.6H1434.53ZM1466.58 101.4C1472.66 101.4 1478.06 102.76 1482.78 105.48C1487.5 108.2 1491.14 112.04 1493.7 117C1496.26 121.88 1497.54 127.44 1497.54 133.68C1497.54 134.64 1497.46 136.24 1497.3 138.48H1450.86C1451.42 142.64 1453.06 145.96 1455.78 148.44C1458.58 150.92 1461.98 152.16 1465.98 152.16C1469.66 152.16 1472.66 151.48 1474.98 150.12C1477.3 148.68 1478.82 146.68 1479.54 144.12H1496.7C1496.06 148.28 1494.3 152.04 1491.42 155.4C1488.62 158.76 1484.98 161.4 1480.5 163.32C1476.1 165.24 1471.3 166.2 1466.1 166.2C1459.94 166.2 1454.42 164.88 1449.54 162.24C1444.66 159.52 1440.82 155.72 1438.02 150.84C1435.3 145.88 1433.94 140.2 1433.94 133.8C1433.94 127.48 1435.34 121.88 1438.14 117C1440.94 112.04 1444.82 108.2 1449.78 105.48C1454.74 102.76 1460.34 101.4 1466.58 101.4ZM1465.74 115.08C1462.06 115.08 1458.82 116.08 1456.02 118.08C1453.3 120.08 1451.62 122.88 1450.98 126.48H1479.54C1479.06 123.36 1477.54 120.68 1474.98 118.44C1472.42 116.2 1469.34 115.08 1465.74 115.08ZM1534.39 101.4C1540.47 101.4 1545.87 102.76 1550.59 105.48C1555.31 108.2 1558.95 112.04 1561.51 117C1564.07 121.88 1565.35 127.44 1565.35 133.68C1565.35 134.64 1565.27 136.24 1565.11 138.48H1518.67C1519.23 142.64 1520.87 145.96 1523.59 148.44C1526.39 150.92 1529.79 152.16 1533.79 152.16C1537.47 152.16 1540.47 151.48 1542.79 150.12C1545.11 148.68 1546.63 146.68 1547.35 144.12H1564.51C1563.87 148.28 1562.11 152.04 1559.23 155.4C1556.43 158.76 1552.79 161.4 1548.31 163.32C1543.91 165.24 1539.11 166.2 1533.91 166.2C1527.75 166.2 1522.23 164.88 1517.35 162.24C1512.47 159.52 1508.63 155.72 1505.83 150.84C1503.11 145.88 1501.75 140.2 1501.75 133.8C1501.75 127.48 1503.15 121.88 1505.95 117C1508.75 112.04 1512.63 108.2 1517.59 105.48C1522.55 102.76 1528.15 101.4 1534.39 101.4ZM1533.55 115.08C1529.87 115.08 1526.63 116.08 1523.83 118.08C1521.11 120.08 1519.43 122.88 1518.79 126.48H1547.35C1546.87 123.36 1545.35 120.68 1542.79 118.44C1540.23 116.2 1537.15 115.08 1533.55 115.08ZM1569.56 133.8C1569.56 127.48 1570.88 121.88 1573.52 117C1576.24 112.12 1580 108.32 1584.8 105.6C1589.68 102.8 1595.2 101.4 1601.36 101.4C1606.96 101.4 1612 102.48 1616.48 104.64C1620.96 106.72 1624.56 109.68 1627.28 113.52C1630 117.28 1631.52 121.52 1631.84 126.24H1613.72C1613.24 122.96 1611.88 120.4 1609.64 118.56C1607.48 116.72 1604.68 115.8 1601.24 115.8C1596.76 115.8 1593.24 117.4 1590.68 120.6C1588.2 123.8 1586.96 128.2 1586.96 133.8C1586.96 139.4 1588.2 143.8 1590.68 147C1593.24 150.2 1596.76 151.8 1601.24 151.8C1604.76 151.8 1607.64 150.88 1609.88 149.04C1612.12 147.2 1613.52 144.64 1614.08 141.36H1631.84C1631.52 146.08 1630 150.36 1627.28 154.2C1624.56 157.96 1620.96 160.92 1616.48 163.08C1612 165.16 1606.96 166.2 1601.36 166.2C1595.2 166.2 1589.68 164.84 1584.8 162.12C1580 159.32 1576.24 155.48 1573.52 150.6C1570.88 145.72 1569.56 140.12 1569.56 133.8ZM1669.3 101.4C1675.38 101.4 1680.78 102.76 1685.5 105.48C1690.22 108.2 1693.86 112.04 1696.42 117C1698.98 121.88 1700.26 127.44 1700.26 133.68C1700.26 134.64 1700.18 136.24 1700.02 138.48H1653.58C1654.14 142.64 1655.78 145.96 1658.5 148.44C1661.3 150.92 1664.7 152.16 1668.7 152.16C1672.38 152.16 1675.38 151.48 1677.7 150.12C1680.02 148.68 1681.54 146.68 1682.26 144.12H1699.42C1698.78 148.28 1697.02 152.04 1694.14 155.4C1691.34 158.76 1687.7 161.4 1683.22 163.32C1678.82 165.24 1674.02 166.2 1668.82 166.2C1662.66 166.2 1657.14 164.88 1652.26 162.24C1647.38 159.52 1643.54 155.72 1640.74 150.84C1638.02 145.88 1636.66 140.2 1636.66 133.8C1636.66 127.48 1638.06 121.88 1640.86 117C1643.66 112.04 1647.54 108.2 1652.5 105.48C1657.46 102.76 1663.06 101.4 1669.3 101.4ZM1668.46 115.08C1664.78 115.08 1661.54 116.08 1658.74 118.08C1656.02 120.08 1654.34 122.88 1653.7 126.48H1682.26C1681.78 123.36 1680.26 120.68 1677.7 118.44C1675.14 116.2 1672.06 115.08 1668.46 115.08Z" fill="#9D2B2E"/>
</svg>
