<svg width="272" height="39" viewBox="0 0 272 39" fill="none" xmlns="http://www.w3.org/2000/svg">
<g clip-path="url(#clip0_5072_190)">
<path d="M112.365 22.3938L107.731 6.00684H101.628L96.9944 22.3938L92.5659 6.00684H85.6904L93.1132 30.0266H100.126L104.498 14.6535L108.868 30.0266H116.063L123.487 6.00684H116.793" fill="white"/>
<path d="M136.237 10.8103C139.123 10.8103 141.158 12.9522 141.472 15.1989H130.639C131.129 12.3303 133.589 10.8103 136.237 10.8103ZM136.555 5.54395C129.36 5.54395 124.17 10.6252 124.17 18.0158C124.17 25.5452 129.315 30.4877 136.374 30.4877C142.384 30.4877 147.257 26.8394 147.985 21.9894H141.473C140.927 23.9286 139.151 25.0839 136.328 25.0839C133.282 25.0839 131.024 23.0413 130.617 19.8176H148.213C149.079 11.5492 144.206 5.54395 136.555 5.54395Z" fill="white"/>
<path d="M163.104 10.8103C165.99 10.8103 168.025 12.9522 168.339 15.1989H157.506C157.996 12.3303 160.455 10.8103 163.104 10.8103ZM163.424 5.54395C156.228 5.54395 151.037 10.6252 151.037 18.0158C151.037 25.5452 156.183 30.4877 163.24 30.4877C169.251 30.4877 174.124 26.8394 174.854 21.9894H168.34C167.794 23.9286 166.018 25.0839 163.196 25.0839C160.149 25.0839 157.891 23.0413 157.485 19.8176H175.08C175.946 11.5492 171.073 5.54395 163.424 5.54395Z" fill="white"/>
<path d="M190.564 15.5215C186.876 15.0139 184.599 14.5975 184.599 12.9808C184.599 11.7343 185.373 10.764 188.561 10.764C191.02 10.764 192.294 11.9643 192.568 13.8585H199.58C199.306 9.51753 195.847 5.54395 188.652 5.54395C181.912 5.54395 178.133 8.45473 178.133 12.9808C178.133 18.5234 184.28 19.7713 186.602 20.0952C191.383 20.7415 193.205 21.1117 193.205 22.8195C193.205 24.3899 191.931 25.269 188.97 25.269C186.102 25.269 184.553 23.9748 184.234 21.9881H177.585C177.905 26.7468 181.593 30.4877 188.88 30.4877C195.938 30.4877 199.854 27.2544 199.854 22.4045C199.854 16.8619 193.934 15.9841 190.564 15.5215Z" fill="white"/>
<path d="M211.967 0.00146484H205.864V6.00675H201.676V11.5494H205.864V23.5586C205.864 27.7621 208.096 30.0265 212.241 30.0265H217.978V24.3914H213.789C212.604 24.3914 211.967 23.7436 211.967 22.5434V11.5494H217.978V6.00675H211.967" fill="white"/>
<path d="M259.189 24.8062C255.682 24.8062 253.269 22.0342 253.269 18.0157C253.269 13.9972 255.682 11.2266 259.189 11.2266C262.696 11.2266 265.109 13.9972 265.109 18.0157C265.109 22.0342 262.696 24.8062 259.189 24.8062ZM260.6 5.68262C257.772 5.68262 255.339 6.91143 253.588 9.00573V6.00649H247.577V38.5708H254.044V27.5346C255.751 29.3186 258.01 30.3488 260.6 30.3488C266.976 30.3488 271.713 25.0838 271.713 18.0157C271.713 10.949 266.976 5.68262 260.6 5.68262Z" fill="white"/>
<path d="M231.867 10.8103C234.752 10.8103 236.788 12.9522 237.102 15.1989H226.269C226.757 12.3303 229.218 10.8103 231.867 10.8103ZM232.185 5.54395C224.991 5.54395 219.799 10.6252 219.799 18.0158C219.799 25.5452 224.945 30.4877 232.003 30.4877C238.014 30.4877 242.887 26.8394 243.615 21.9894H237.104C236.558 23.9286 234.781 25.0839 231.957 25.0839C228.912 25.0839 226.653 23.0413 226.246 19.8176H243.844C244.709 11.5492 239.836 5.54395 232.185 5.54395Z" fill="white"/>
<path d="M55.4179 30.2701C57.8863 31.2731 60.6902 30.0565 61.6789 27.5512L67.7736 12.1073C68.7623 9.60341 67.563 6.76066 65.0932 5.75774C62.6247 4.75482 59.8222 5.97139 58.8335 8.47529L52.7374 23.9206C51.7487 26.4245 52.9494 29.2672 55.4179 30.2701Z" fill="white"/>
<path d="M12.6922 30.2706C10.2237 31.2735 7.41985 30.057 6.43112 27.5517L0.345835 12.1078C-0.64289 9.6039 0.557801 6.76115 3.02626 5.75823C5.49472 4.75531 8.29723 5.97188 9.28595 8.47578L15.3726 23.9211C16.36 26.425 15.1606 29.2677 12.6922 30.2706Z" fill="white"/>
<path d="M47.5965 30.2701C45.1267 31.2731 42.3242 30.0565 41.3354 27.5512L35.2501 12.1073C34.2614 9.60341 35.4621 6.76066 37.9306 5.75774C40.399 4.75482 43.2029 5.97139 44.1903 8.47529L50.2769 23.9206C51.2643 26.4245 50.0649 29.2672 47.5965 30.2701Z" fill="white"/>
<path d="M20.5136 30.2701C22.982 31.2731 25.7859 30.0565 26.7746 27.5512L32.8693 12.1073C33.858 9.60341 32.6587 6.76066 30.1902 5.75774C27.7204 4.75482 24.9179 5.97139 23.9292 8.47529L17.8331 23.9206C16.8444 26.4245 18.0451 29.2672 20.5136 30.2701Z" fill="white"/>
<g clip-path="url(#clip1_5072_190)">
<path d="M112.365 22.3938L107.731 6.00684H101.628L96.9944 22.3938L92.5659 6.00684H85.6904L93.1132 30.0266H100.126L104.498 14.6535L108.868 30.0266H116.063L123.487 6.00684H116.793" fill="black"/>
<path d="M136.237 10.8103C139.123 10.8103 141.158 12.9522 141.472 15.1989H130.639C131.129 12.3303 133.589 10.8103 136.237 10.8103ZM136.555 5.54395C129.36 5.54395 124.17 10.6252 124.17 18.0158C124.17 25.5452 129.315 30.4877 136.374 30.4877C142.384 30.4877 147.257 26.8394 147.985 21.9894H141.473C140.927 23.9286 139.151 25.0839 136.328 25.0839C133.282 25.0839 131.024 23.0413 130.617 19.8176H148.213C149.079 11.5492 144.206 5.54395 136.555 5.54395Z" fill="black"/>
<path d="M163.104 10.8103C165.99 10.8103 168.025 12.9522 168.339 15.1989H157.506C157.996 12.3303 160.455 10.8103 163.104 10.8103ZM163.424 5.54395C156.228 5.54395 151.037 10.6252 151.037 18.0158C151.037 25.5452 156.183 30.4877 163.24 30.4877C169.251 30.4877 174.124 26.8394 174.854 21.9894H168.34C167.794 23.9286 166.018 25.0839 163.196 25.0839C160.149 25.0839 157.891 23.0413 157.485 19.8176H175.08C175.946 11.5492 171.073 5.54395 163.424 5.54395Z" fill="black"/>
<path d="M190.564 15.5215C186.876 15.0139 184.599 14.5975 184.599 12.9808C184.599 11.7343 185.373 10.764 188.561 10.764C191.02 10.764 192.294 11.9643 192.568 13.8585H199.58C199.306 9.51753 195.847 5.54395 188.652 5.54395C181.912 5.54395 178.133 8.45473 178.133 12.9808C178.133 18.5234 184.28 19.7713 186.602 20.0952C191.383 20.7415 193.205 21.1117 193.205 22.8195C193.205 24.3899 191.931 25.269 188.97 25.269C186.102 25.269 184.553 23.9748 184.234 21.9881H177.585C177.905 26.7468 181.593 30.4877 188.88 30.4877C195.938 30.4877 199.854 27.2544 199.854 22.4045C199.854 16.8619 193.934 15.9841 190.564 15.5215Z" fill="black"/>
<path d="M211.967 0.00146484H205.864V6.00675H201.676V11.5494H205.864V23.5586C205.864 27.7621 208.096 30.0265 212.241 30.0265H217.978V24.3914H213.789C212.604 24.3914 211.967 23.7436 211.967 22.5434V11.5494H217.978V6.00675H211.967" fill="black"/>
<path d="M259.189 24.8062C255.682 24.8062 253.269 22.0342 253.269 18.0157C253.269 13.9972 255.682 11.2266 259.189 11.2266C262.696 11.2266 265.109 13.9972 265.109 18.0157C265.109 22.0342 262.696 24.8062 259.189 24.8062ZM260.6 5.68262C257.772 5.68262 255.339 6.91143 253.588 9.00573V6.00649H247.577V38.5708H254.044V27.5346C255.751 29.3186 258.01 30.3488 260.6 30.3488C266.976 30.3488 271.713 25.0838 271.713 18.0157C271.713 10.949 266.976 5.68262 260.6 5.68262Z" fill="black"/>
<path d="M231.867 10.8103C234.752 10.8103 236.788 12.9522 237.102 15.1989H226.269C226.757 12.3303 229.218 10.8103 231.867 10.8103ZM232.185 5.54395C224.991 5.54395 219.799 10.6252 219.799 18.0158C219.799 25.5452 224.945 30.4877 232.003 30.4877C238.014 30.4877 242.887 26.8394 243.615 21.9894H237.104C236.558 23.9286 234.781 25.0839 231.957 25.0839C228.912 25.0839 226.653 23.0413 226.246 19.8176H243.844C244.709 11.5492 239.836 5.54395 232.185 5.54395Z" fill="black"/>
<path d="M55.4179 30.2701C57.8863 31.2731 60.6902 30.0565 61.6789 27.5512L67.7736 12.1073C68.7623 9.60341 67.563 6.76066 65.0932 5.75774C62.6247 4.75482 59.8222 5.97139 58.8335 8.47529L52.7374 23.9206C51.7487 26.4245 52.9494 29.2672 55.4179 30.2701Z" fill="#FD6B28"/>
<path d="M12.6922 30.2706C10.2237 31.2735 7.41985 30.057 6.43112 27.5517L0.345835 12.1078C-0.64289 9.6039 0.557801 6.76115 3.02626 5.75823C5.49472 4.75531 8.29723 5.97188 9.28595 8.47578L15.3726 23.9211C16.36 26.425 15.1606 29.2677 12.6922 30.2706Z" fill="#E7CEB7"/>
<path d="M47.5965 30.2701C45.1267 31.2731 42.3242 30.0565 41.3354 27.5512L35.2501 12.1073C34.2614 9.60341 35.4621 6.76066 37.9306 5.75774C40.399 4.75482 43.2029 5.97139 44.1903 8.47529L50.2769 23.9206C51.2643 26.4245 50.0649 29.2672 47.5965 30.2701Z" fill="#9D2B2E"/>
<path d="M20.5136 30.2701C22.982 31.2731 25.7859 30.0565 26.7746 27.5512L32.8693 12.1073C33.858 9.60341 32.6587 6.76066 30.1902 5.75774C27.7204 4.75482 24.9179 5.97139 23.9292 8.47529L17.8331 23.9206C16.8444 26.4245 18.0451 29.2672 20.5136 30.2701Z" fill="#115E67"/>
</g>
</g>
<defs>
<clipPath id="clip0_5072_190">
<rect width="271.714" height="38.5714" fill="white"/>
</clipPath>
<clipPath id="clip1_5072_190">
<rect width="271.714" height="38.5714" fill="white"/>
</clipPath>
</defs>
</svg>
